<mxfile host="app.diagrams.net" modified="2024-03-25T15:56:44.042Z" agent="Mozilla/5.0 (Macintosh; Intel Mac OS X 10.15; rv:124.0) Gecko/20100101 Firefox/124.0" etag="PE923Wf6ydW84bW1vTBj" version="24.1.0" type="device">
  <diagram id="C5RBs43oDa-KdzZeNtuy" name="Page-1">
    <mxGraphModel dx="934" dy="724" grid="1" gridSize="10" guides="1" tooltips="1" connect="1" arrows="1" fold="1" page="1" pageScale="1" pageWidth="827" pageHeight="1169" math="0" shadow="0">
      <root>
        <mxCell id="WIyWlLk6GJQsqaUBKTNV-0" />
        <mxCell id="WIyWlLk6GJQsqaUBKTNV-1" parent="WIyWlLk6GJQsqaUBKTNV-0" />
        <mxCell id="aRX0REp-QfqRVrfxCBYt-4" value="Bullseye Bonanza" style="swimlane;fontStyle=1;align=center;verticalAlign=top;childLayout=stackLayout;horizontal=1;startSize=26;horizontalStack=0;resizeParent=1;resizeParentMax=0;resizeLast=0;collapsible=1;marginBottom=0;whiteSpace=wrap;html=1;" parent="WIyWlLk6GJQsqaUBKTNV-1" vertex="1">
          <mxGeometry x="280" y="170" width="240" height="230" as="geometry" />
        </mxCell>
        <mxCell id="aRX0REp-QfqRVrfxCBYt-5" value="&lt;div&gt;- levels: Level[]&lt;/div&gt;&lt;div&gt;- timer: Timer[]&lt;/div&gt;&lt;div&gt;- score: int&lt;/div&gt;&lt;div&gt;- shapes: Shape[]&lt;br&gt;&lt;/div&gt;" style="text;strokeColor=none;fillColor=none;align=left;verticalAlign=top;spacingLeft=4;spacingRight=4;overflow=hidden;rotatable=0;points=[[0,0.5],[1,0.5]];portConstraint=eastwest;whiteSpace=wrap;html=1;" parent="aRX0REp-QfqRVrfxCBYt-4" vertex="1">
          <mxGeometry y="26" width="240" height="74" as="geometry" />
        </mxCell>
        <mxCell id="aRX0REp-QfqRVrfxCBYt-6" value="" style="line;strokeWidth=1;fillColor=none;align=left;verticalAlign=middle;spacingTop=-1;spacingLeft=3;spacingRight=3;rotatable=0;labelPosition=right;points=[];portConstraint=eastwest;strokeColor=inherit;" parent="aRX0REp-QfqRVrfxCBYt-4" vertex="1">
          <mxGeometry y="100" width="240" height="8" as="geometry" />
        </mxCell>
        <mxCell id="aRX0REp-QfqRVrfxCBYt-7" value="&lt;div&gt;+ setup(): void&lt;/div&gt;&lt;div&gt;+ draw(): void&lt;br&gt;&lt;/div&gt;&lt;div&gt;+ startGame(): void&lt;br&gt;&lt;/div&gt;&lt;div&gt;+ endGame(): void&lt;/div&gt;&lt;div&gt;+ hitShape(): void&lt;/div&gt;&lt;div&gt;+ infoPanel(): void&lt;br&gt;&lt;/div&gt;&lt;div&gt;+ mouseClicked(): void&lt;br&gt;&lt;/div&gt;" style="text;strokeColor=none;fillColor=none;align=left;verticalAlign=top;spacingLeft=4;spacingRight=4;overflow=hidden;rotatable=0;points=[[0,0.5],[1,0.5]];portConstraint=eastwest;whiteSpace=wrap;html=1;" parent="aRX0REp-QfqRVrfxCBYt-4" vertex="1">
          <mxGeometry y="108" width="240" height="122" as="geometry" />
        </mxCell>
        <mxCell id="20b-lviNTtCLOoE7E5Yc-0" value="" style="endArrow=classic;html=1;rounded=0;exitX=0;exitY=0.5;exitDx=0;exitDy=0;" edge="1" parent="WIyWlLk6GJQsqaUBKTNV-1" source="aRX0REp-QfqRVrfxCBYt-7">
          <mxGeometry width="50" height="50" relative="1" as="geometry">
            <mxPoint x="120" y="421" as="sourcePoint" />
            <mxPoint x="160" y="470" as="targetPoint" />
            <Array as="points">
              <mxPoint x="250" y="339" />
              <mxPoint x="220" y="340" />
              <mxPoint x="190" y="340" />
              <mxPoint x="160" y="339" />
            </Array>
          </mxGeometry>
        </mxCell>
        <mxCell id="20b-lviNTtCLOoE7E5Yc-1" value="Level" style="swimlane;fontStyle=1;align=center;verticalAlign=top;childLayout=stackLayout;horizontal=1;startSize=26;horizontalStack=0;resizeParent=1;resizeParentMax=0;resizeLast=0;collapsible=1;marginBottom=0;whiteSpace=wrap;html=1;" vertex="1" parent="WIyWlLk6GJQsqaUBKTNV-1">
          <mxGeometry x="80" y="470" width="180" height="150" as="geometry" />
        </mxCell>
        <mxCell id="20b-lviNTtCLOoE7E5Yc-2" value="&lt;div&gt;- difficulty: int&lt;/div&gt;&lt;div&gt;- movementShapes: int&lt;/div&gt;&lt;div&gt;&lt;br&gt;&lt;/div&gt;&lt;div&gt;&lt;br&gt;&lt;/div&gt;" style="text;strokeColor=none;fillColor=none;align=left;verticalAlign=top;spacingLeft=4;spacingRight=4;overflow=hidden;rotatable=0;points=[[0,0.5],[1,0.5]];portConstraint=eastwest;whiteSpace=wrap;html=1;" vertex="1" parent="20b-lviNTtCLOoE7E5Yc-1">
          <mxGeometry y="26" width="180" height="44" as="geometry" />
        </mxCell>
        <mxCell id="20b-lviNTtCLOoE7E5Yc-3" value="" style="line;strokeWidth=1;fillColor=none;align=left;verticalAlign=middle;spacingTop=-1;spacingLeft=3;spacingRight=3;rotatable=0;labelPosition=right;points=[];portConstraint=eastwest;strokeColor=inherit;" vertex="1" parent="20b-lviNTtCLOoE7E5Yc-1">
          <mxGeometry y="70" width="180" height="8" as="geometry" />
        </mxCell>
        <mxCell id="20b-lviNTtCLOoE7E5Yc-4" value="&lt;div&gt;+ higherDifficulty(): void&lt;/div&gt;&lt;div&gt;+ moveShapes(): void&lt;/div&gt;&lt;div&gt;+ checkEndConditions(): void&lt;br&gt;&lt;/div&gt;" style="text;strokeColor=none;fillColor=none;align=left;verticalAlign=top;spacingLeft=4;spacingRight=4;overflow=hidden;rotatable=0;points=[[0,0.5],[1,0.5]];portConstraint=eastwest;whiteSpace=wrap;html=1;" vertex="1" parent="20b-lviNTtCLOoE7E5Yc-1">
          <mxGeometry y="78" width="180" height="72" as="geometry" />
        </mxCell>
        <mxCell id="20b-lviNTtCLOoE7E5Yc-5" value="Shape" style="swimlane;fontStyle=1;align=center;verticalAlign=top;childLayout=stackLayout;horizontal=1;startSize=26;horizontalStack=0;resizeParent=1;resizeParentMax=0;resizeLast=0;collapsible=1;marginBottom=0;whiteSpace=wrap;html=1;" vertex="1" parent="WIyWlLk6GJQsqaUBKTNV-1">
          <mxGeometry x="350" y="470" width="170" height="180" as="geometry" />
        </mxCell>
        <mxCell id="20b-lviNTtCLOoE7E5Yc-6" value="&lt;div&gt;- type: String&lt;/div&gt;&lt;div&gt;- position: Point&lt;/div&gt;&lt;div&gt;- size: int&lt;/div&gt;&lt;div&gt;- isVisible: boolean &lt;br&gt;&lt;/div&gt;" style="text;strokeColor=none;fillColor=none;align=left;verticalAlign=top;spacingLeft=4;spacingRight=4;overflow=hidden;rotatable=0;points=[[0,0.5],[1,0.5]];portConstraint=eastwest;whiteSpace=wrap;html=1;" vertex="1" parent="20b-lviNTtCLOoE7E5Yc-5">
          <mxGeometry y="26" width="170" height="74" as="geometry" />
        </mxCell>
        <mxCell id="20b-lviNTtCLOoE7E5Yc-7" value="" style="line;strokeWidth=1;fillColor=none;align=left;verticalAlign=middle;spacingTop=-1;spacingLeft=3;spacingRight=3;rotatable=0;labelPosition=right;points=[];portConstraint=eastwest;strokeColor=inherit;" vertex="1" parent="20b-lviNTtCLOoE7E5Yc-5">
          <mxGeometry y="100" width="170" height="8" as="geometry" />
        </mxCell>
        <mxCell id="20b-lviNTtCLOoE7E5Yc-8" value="&lt;div&gt;+ move(): void&lt;/div&gt;&lt;div&gt;+ disappear() : void&lt;/div&gt;&lt;div&gt;+ reappear(): void&lt;/div&gt;&lt;div&gt;+ checkHit(): void&lt;br&gt;&lt;/div&gt;" style="text;strokeColor=none;fillColor=none;align=left;verticalAlign=top;spacingLeft=4;spacingRight=4;overflow=hidden;rotatable=0;points=[[0,0.5],[1,0.5]];portConstraint=eastwest;whiteSpace=wrap;html=1;" vertex="1" parent="20b-lviNTtCLOoE7E5Yc-5">
          <mxGeometry y="108" width="170" height="72" as="geometry" />
        </mxCell>
        <mxCell id="20b-lviNTtCLOoE7E5Yc-9" value="" style="endArrow=classic;html=1;rounded=0;entryX=0.5;entryY=0;entryDx=0;entryDy=0;exitX=0.5;exitY=0.997;exitDx=0;exitDy=0;exitPerimeter=0;" edge="1" parent="WIyWlLk6GJQsqaUBKTNV-1" source="aRX0REp-QfqRVrfxCBYt-7" target="20b-lviNTtCLOoE7E5Yc-5">
          <mxGeometry width="50" height="50" relative="1" as="geometry">
            <mxPoint x="380" y="430" as="sourcePoint" />
            <mxPoint x="300" y="390" as="targetPoint" />
            <Array as="points">
              <mxPoint x="400" y="410" />
              <mxPoint x="435" y="410" />
              <mxPoint x="435" y="430" />
            </Array>
          </mxGeometry>
        </mxCell>
        <mxCell id="20b-lviNTtCLOoE7E5Yc-10" value="Timer" style="swimlane;fontStyle=1;align=center;verticalAlign=top;childLayout=stackLayout;horizontal=1;startSize=26;horizontalStack=0;resizeParent=1;resizeParentMax=0;resizeLast=0;collapsible=1;marginBottom=0;whiteSpace=wrap;html=1;" vertex="1" parent="WIyWlLk6GJQsqaUBKTNV-1">
          <mxGeometry x="580" y="470" width="180" height="140" as="geometry" />
        </mxCell>
        <mxCell id="20b-lviNTtCLOoE7E5Yc-11" value="&lt;div&gt;-timeLeft: int&lt;br&gt;&lt;/div&gt;" style="text;strokeColor=none;fillColor=none;align=left;verticalAlign=top;spacingLeft=4;spacingRight=4;overflow=hidden;rotatable=0;points=[[0,0.5],[1,0.5]];portConstraint=eastwest;whiteSpace=wrap;html=1;" vertex="1" parent="20b-lviNTtCLOoE7E5Yc-10">
          <mxGeometry y="26" width="180" height="34" as="geometry" />
        </mxCell>
        <mxCell id="20b-lviNTtCLOoE7E5Yc-12" value="" style="line;strokeWidth=1;fillColor=none;align=left;verticalAlign=middle;spacingTop=-1;spacingLeft=3;spacingRight=3;rotatable=0;labelPosition=right;points=[];portConstraint=eastwest;strokeColor=inherit;" vertex="1" parent="20b-lviNTtCLOoE7E5Yc-10">
          <mxGeometry y="60" width="180" height="8" as="geometry" />
        </mxCell>
        <mxCell id="20b-lviNTtCLOoE7E5Yc-13" value="&lt;div&gt;+ start(): void&lt;/div&gt;&lt;div&gt;+ stop() : void&lt;/div&gt;&lt;div&gt;+ tick() : void&lt;br&gt;&lt;/div&gt;" style="text;strokeColor=none;fillColor=none;align=left;verticalAlign=top;spacingLeft=4;spacingRight=4;overflow=hidden;rotatable=0;points=[[0,0.5],[1,0.5]];portConstraint=eastwest;whiteSpace=wrap;html=1;" vertex="1" parent="20b-lviNTtCLOoE7E5Yc-10">
          <mxGeometry y="68" width="180" height="72" as="geometry" />
        </mxCell>
        <mxCell id="20b-lviNTtCLOoE7E5Yc-14" value="" style="endArrow=classic;html=1;rounded=0;exitX=1;exitY=0.5;exitDx=0;exitDy=0;entryX=0.5;entryY=0;entryDx=0;entryDy=0;" edge="1" parent="WIyWlLk6GJQsqaUBKTNV-1" source="aRX0REp-QfqRVrfxCBYt-7" target="20b-lviNTtCLOoE7E5Yc-10">
          <mxGeometry width="50" height="50" relative="1" as="geometry">
            <mxPoint x="787" y="329" as="sourcePoint" />
            <mxPoint x="667" y="470" as="targetPoint" />
            <Array as="points">
              <mxPoint x="670" y="340" />
            </Array>
          </mxGeometry>
        </mxCell>
      </root>
    </mxGraphModel>
  </diagram>
</mxfile>
